<svg width="129" height="126" viewBox="0 0 129 126" fill="none" xmlns="http://www.w3.org/2000/svg">
<path d="M64.3272 0C99.868 0 128.654 28.7864 128.654 64.3272C128.651 77.8054 124.421 90.9431 116.56 101.891C108.698 112.839 97.6016 121.047 84.8315 125.358C81.6152 126.001 80.409 123.991 80.409 122.302C80.409 120.131 80.4894 113.216 80.4894 104.612C80.4894 98.5815 78.4792 94.7218 76.1473 92.7116C90.4602 91.1034 105.497 85.6356 105.497 60.95C105.497 53.874 103.004 48.165 98.9031 43.6621C99.5464 42.0539 101.798 35.4604 98.2598 26.6154C98.2598 26.6154 92.8724 24.8464 80.5698 33.2089C75.4237 31.7616 69.9558 31.0379 64.488 31.0379C59.0202 31.0379 53.5524 31.7616 48.4062 33.2089C36.1037 24.9268 30.7163 26.6154 30.7163 26.6154C27.1783 35.4604 29.4297 42.0539 30.073 43.6621C25.9721 48.165 23.4794 53.9544 23.4794 60.95C23.4794 85.5552 38.4355 91.1034 52.7483 92.7116C50.8989 94.3198 49.2103 97.1341 48.6475 101.315C44.9486 103.004 35.7016 105.738 29.9122 96.0084C28.706 94.0785 25.0876 89.3344 20.0219 89.4148C14.6344 89.4952 17.8508 92.4704 20.1023 93.6765C22.8362 95.2043 25.9721 100.913 26.6958 102.763C27.9823 106.381 32.1636 113.296 48.3258 110.321C48.3258 115.709 48.4062 120.774 48.4062 122.302C48.4062 123.991 47.2001 125.921 43.9837 125.358C31.1717 121.093 20.0278 112.902 12.1328 101.948C4.23793 90.993 -0.00707985 77.8304 8.86358e-06 64.3272C8.86358e-06 28.7864 28.7864 0 64.3272 0Z" fill="#24292F"/>
</svg>
